<svg width="50" height="50" viewBox="0 0 50 50" fill="none" xmlns="http://www.w3.org/2000/svg">
<path d="M25.0027 18.8467C21.5967 18.8467 18.8494 21.594 18.8494 25C18.8494 28.406 21.5967 31.1533 25.0027 31.1533C28.4087 31.1533 31.156 28.406 31.156 25C31.156 21.594 28.4087 18.8467 25.0027 18.8467ZM25.0027 29.0004C22.8016 29.0004 21.0022 27.2064 21.0022 25C21.0022 22.7936 22.7963 20.9996 25.0027 20.9996C27.2091 20.9996 29.0031 22.7936 29.0031 25C29.0031 27.2064 27.2037 29.0004 25.0027 29.0004ZM32.8429 18.595C32.8429 19.3929 32.2003 20.0302 31.4077 20.0302C30.6097 20.0302 29.9724 19.3876 29.9724 18.595C29.9724 17.8024 30.6151 17.1598 31.4077 17.1598C32.2003 17.1598 32.8429 17.8024 32.8429 18.595ZM36.9183 20.0517C36.8273 18.1291 36.3881 16.4261 34.9797 15.023C33.5766 13.6199 31.8736 13.1807 29.951 13.0843C27.9695 12.9719 22.0305 12.9719 20.049 13.0843C18.1318 13.1754 16.4288 13.6145 15.0203 15.0176C13.6118 16.4207 13.1781 18.1237 13.0817 20.0463C12.9692 22.0278 12.9692 27.9669 13.0817 29.9483C13.1727 31.8709 13.6118 33.5739 15.0203 34.977C16.4288 36.3801 18.1264 36.8193 20.049 36.9157C22.0305 37.0281 27.9695 37.0281 29.951 36.9157C31.8736 36.8246 33.5766 36.3855 34.9797 34.977C36.3828 33.5739 36.8219 31.8709 36.9183 29.9483C37.0308 27.9669 37.0308 22.0331 36.9183 20.0517ZM34.3585 32.0744C33.9408 33.1241 33.1321 33.9327 32.0771 34.3558C30.4973 34.9824 26.7485 34.8378 25.0027 34.8378C23.2568 34.8378 19.5027 34.977 17.9283 34.3558C16.8786 33.9381 16.0699 33.1294 15.6469 32.0744C15.0203 30.4946 15.1649 26.7458 15.1649 25C15.1649 23.2542 15.0257 19.5001 15.6469 17.9256C16.0646 16.8759 16.8732 16.0673 17.9283 15.6442C19.5081 15.0176 23.2568 15.1622 25.0027 15.1622C26.7485 15.1622 30.5026 15.023 32.0771 15.6442C33.1267 16.0619 33.9354 16.8706 34.3585 17.9256C34.985 19.5054 34.8404 23.2542 34.8404 25C34.8404 26.7458 34.985 30.4999 34.3585 32.0744Z" fill="#565656"/>
<rect x="0.5" y="0.5" width="49" height="49" stroke="#565656"/>
</svg>
