<svg width="50" height="50" viewBox="0 0 50 50" fill="none" xmlns="http://www.w3.org/2000/svg">
<path d="M18.3723 37H13.3965V20.9764H18.3723V37ZM15.8817 18.7907C14.2906 18.7907 13.0001 17.4728 13.0001 15.8817C13.0001 15.1174 13.3037 14.3844 13.8441 13.844C14.3845 13.3036 15.1175 13 15.8817 13C16.646 13 17.379 13.3036 17.9194 13.844C18.4598 14.3844 18.7634 15.1174 18.7634 15.8817C18.7634 17.4728 17.4723 18.7907 15.8817 18.7907ZM36.9952 37H32.0301V29.1998C32.0301 27.3409 31.9926 24.9569 29.4431 24.9569C26.8561 24.9569 26.4597 26.9766 26.4597 29.0659V37H21.4892V20.9764H26.2614V23.1622H26.3311C26.9954 21.9032 28.6181 20.5746 31.039 20.5746C36.0749 20.5746 37.0006 23.8908 37.0006 28.198V37H36.9952Z" fill="#565656"/>
<rect x="0.5" y="0.5" width="49.0007" height="49" stroke="#565656"/>
</svg>
