<svg width="50" height="50" viewBox="0 0 50 50" fill="none" xmlns="http://www.w3.org/2000/svg">
<rect x="0.5" y="0.5" width="49" height="49" fill="#565656"/>
<path d="M36.7375 18.9812C36.7563 19.2437 36.7563 19.5063 36.7563 19.7687C36.7563 27.775 30.6626 37 19.525 37C16.0938 37 12.9063 36.0062 10.225 34.2813C10.7126 34.3375 11.1813 34.3563 11.6875 34.3563C14.5187 34.3563 17.125 33.4 19.2063 31.7688C16.5438 31.7125 14.3125 29.9688 13.5438 27.5687C13.9188 27.625 14.2938 27.6625 14.6876 27.6625C15.2313 27.6625 15.7751 27.5874 16.2813 27.4563C13.5063 26.8937 11.425 24.4562 11.425 21.5125V21.4375C12.2312 21.8875 13.1688 22.1688 14.1625 22.2062C12.5312 21.1187 11.4625 19.2625 11.4625 17.1625C11.4625 16.0375 11.7624 15.0062 12.2875 14.1062C15.2687 17.7812 19.75 20.1812 24.775 20.4437C24.6812 19.9937 24.625 19.525 24.625 19.0563C24.625 15.7187 27.325 13 30.6812 13C32.425 13 33.9999 13.7312 35.1062 14.9125C36.4749 14.65 37.7874 14.1437 38.95 13.45C38.4999 14.8563 37.5437 16.0375 36.2875 16.7875C37.5062 16.6563 38.6875 16.3187 39.775 15.85C38.9501 17.05 37.9188 18.1187 36.7375 18.9812Z" fill="white"/>
<rect x="0.5" y="0.5" width="49" height="49" stroke="#565656"/>
</svg>
